<svg t="1617083070513" class="icon" viewBox="0 0 1024 1024" version="1.1" xmlns="http://www.w3.org/2000/svg" p-id="8946" width="200" height="200"><path d="M492.001882 10.842353a481.882353 481.882353 0 1 0 0 963.764706 481.882353 481.882353 0 0 0 0-963.764706z m100.291765 746.797176a1584.188235 1584.188235 0 0 1-59.331765 22.347295c-14.757647 5.180235-31.924706 7.770353-51.501176 7.770352-30.057412 0-53.368471-7.288471-69.993412-22.046117a70.896941 70.896941 0 0 1-24.937412-55.717647c0-8.794353 0.602353-17.769412 1.807059-26.925177 1.264941-9.035294 3.312941-19.395765 6.02353-30.960941l31.021176-109.628235c2.650353-9.878588 4.939294-19.877647 6.987294-29.816471 1.807059-8.493176 2.710588-17.167059 2.770824-25.840941 0-13.914353-2.891294-23.732706-8.613647-29.214118-5.842824-5.541647-16.865882-8.252235-33.129412-8.252235-8.432941 0.060235-16.745412 1.264941-24.696471 3.674353-7.348706 2.168471-14.516706 4.577882-21.684706 7.228235l8.252236-33.852235c19.154824-7.830588 38.550588-14.938353 58.307764-21.263059 18.612706-5.903059 36.141176-8.854588 52.645647-8.854588 29.816471 0 52.826353 7.228235 69.029648 21.684706 16.082824 14.336 24.214588 33.069176 24.214588 56.079059 0 4.818824-0.602353 13.191529-1.686588 25.178353-0.963765 11.203765-3.011765 22.287059-6.264471 33.069176l-30.840471 109.266824c-2.770824 9.878588-4.999529 19.877647-6.866823 29.997176a162.635294 162.635294 0 0 0-2.891294 25.539765c0 14.576941 3.252706 24.455529 9.697882 29.696 6.505412 5.240471 17.769412 7.951059 33.792 7.951059 7.529412 0 15.962353-1.325176 25.539765-3.915294 9.517176-2.650353 16.263529-4.939294 20.60047-6.927059l-8.252235 33.731764z m-5.421176-443.693176a73.667765 73.667765 0 0 1-52.043295 20.058353 74.691765 74.691765 0 0 1-52.284235-20.058353 64.150588 64.150588 0 0 1-21.684706-48.730353c0-18.913882 7.228235-35.297882 21.684706-48.790588 14.576941-13.552941 32.045176-20.239059 52.284235-20.239059 20.299294 0 37.647059 6.686118 52.043295 20.239059 14.396235 13.492706 21.564235 29.876706 21.564235 48.790588 0 19.094588-7.228235 35.297882-21.564235 48.730353z" p-id="8947"></path></svg>